<?xml version="1.0" ?><svg baseProfile="tiny" height="24px" id="Layer_1" version="1.2" viewBox="0 0 24 24" width="24px" xml:space="preserve" xmlns="http://www.w3.org/2000/svg" xmlns:xlink="http://www.w3.org/1999/xlink"><path d="M20,6c0-0.587-0.257-1.167-0.75-1.562c-0.863-0.69-2.121-0.551-2.812,0.312l-2.789,3.486L11.2,6.4  c-0.864-0.648-2.087-0.493-2.762,0.351l-4,5C4.144,12.119,4,12.562,4,13v3h16V6z"/><path d="M20,19H4c-0.552,0-1,0.447-1,1s0.448,1,1,1h16c0.552,0,1-0.447,1-1S20.552,19,20,19z"/></svg>